<svg width="614" height="134" viewBox="0 0 614 134" fill="none" xmlns="http://www.w3.org/2000/svg">
<path d="M119.552 63.328H113.936V73H103.64V36.6H120.28C123.573 36.6 126.433 37.1547 128.86 38.264C131.287 39.3387 133.159 40.8987 134.476 42.944C135.793 44.9547 136.452 47.3293 136.452 50.068C136.452 52.7027 135.828 55.008 134.58 56.984C133.367 58.9253 131.616 60.4507 129.328 61.56L137.18 73H126.156L119.552 63.328ZM126.052 50.068C126.052 48.3693 125.515 47.052 124.44 46.116C123.365 45.18 121.771 44.712 119.656 44.712H113.936V55.372H119.656C121.771 55.372 123.365 54.9213 124.44 54.02C125.515 53.084 126.052 51.7667 126.052 50.068ZM178.636 65.044V73H149.412V36.6H177.96V44.556H159.604V50.692H175.776V58.388H159.604V65.044H178.636ZM191.63 36.6H201.926V73H191.63V36.6ZM249.395 73L249.291 53.708L239.931 69.412H235.355L226.047 54.228V73H216.531V36.6H225.007L237.799 57.608L250.279 36.6H258.755L258.859 73H249.395ZM297.812 65.928H282.42L279.56 73H269.056L285.124 36.6H295.264L311.384 73H300.672L297.812 65.928ZM294.796 58.336L290.116 46.688L285.436 58.336H294.796ZM345.463 54.02H354.563V69.1C352.483 70.5907 350.091 71.7347 347.387 72.532C344.683 73.3293 341.979 73.728 339.275 73.728C335.462 73.728 332.03 72.9307 328.979 71.336C325.928 69.7067 323.536 67.4533 321.803 64.576C320.07 61.6987 319.203 58.44 319.203 54.8C319.203 51.16 320.07 47.9013 321.803 45.024C323.536 42.1467 325.946 39.9107 329.031 38.316C332.116 36.6867 335.6 35.872 339.483 35.872C342.88 35.872 345.931 36.444 348.635 37.588C351.339 38.732 353.592 40.3787 355.395 42.528L348.843 48.456C346.382 45.752 343.435 44.4 340.003 44.4C336.883 44.4 334.37 45.3533 332.463 47.26C330.556 49.132 329.603 51.6453 329.603 54.8C329.603 56.8107 330.036 58.6133 330.903 60.208C331.77 61.768 332.983 62.9987 334.543 63.9C336.103 64.7667 337.888 65.2 339.899 65.2C341.875 65.2 343.73 64.8013 345.463 64.004V54.02ZM368.371 36.6H378.667V73H368.371V36.6ZM427.904 36.6V73H419.428L403.36 53.604V73H393.272V36.6H401.748L417.816 55.996V36.6H427.904ZM442.446 36.6H452.742V73H442.446V36.6ZM501.979 36.6V73H493.503L477.435 53.604V73H467.347V36.6H475.823L491.891 55.996V36.6H501.979ZM540.91 54.02H550.01V69.1C547.93 70.5907 545.538 71.7347 542.834 72.532C540.13 73.3293 537.426 73.728 534.722 73.728C530.909 73.728 527.477 72.9307 524.426 71.336C521.375 69.7067 518.983 67.4533 517.25 64.576C515.517 61.6987 514.65 58.44 514.65 54.8C514.65 51.16 515.517 47.9013 517.25 45.024C518.983 42.1467 521.393 39.9107 524.478 38.316C527.563 36.6867 531.047 35.872 534.93 35.872C538.327 35.872 541.378 36.444 544.082 37.588C546.786 38.732 549.039 40.3787 550.842 42.528L544.29 48.456C541.829 45.752 538.882 44.4 535.45 44.4C532.33 44.4 529.817 45.3533 527.91 47.26C526.003 49.132 525.05 51.6453 525.05 54.8C525.05 56.8107 525.483 58.6133 526.35 60.208C527.217 61.768 528.43 62.9987 529.99 63.9C531.55 64.7667 533.335 65.2 535.346 65.2C537.322 65.2 539.177 64.8013 540.91 64.004V54.02ZM119.084 86.8L111.154 105H107.826L99.87 86.8H103.536L109.594 100.84L115.704 86.8H119.084ZM134.825 100.788H125.725L123.931 105H120.447L128.637 86.8H131.965L140.181 105H136.645L134.825 100.788ZM133.707 98.136L130.275 90.18L126.869 98.136H133.707ZM145.095 86.8H148.475V102.14H157.991V105H145.095V86.8ZM170.832 105.26C168.318 105.26 166.36 104.558 164.956 103.154C163.552 101.733 162.85 99.7047 162.85 97.07V86.8H166.23V96.94C166.23 100.511 167.772 102.296 170.858 102.296C173.926 102.296 175.46 100.511 175.46 96.94V86.8H178.788V97.07C178.788 99.7047 178.086 101.733 176.682 103.154C175.295 104.558 173.345 105.26 170.832 105.26ZM199.771 102.166V105H186.121V86.8H199.407V89.634H189.501V94.366H198.289V97.148H189.501V102.166H199.771ZM211.781 105.26C210.377 105.26 209.017 105.061 207.699 104.662C206.399 104.263 205.368 103.735 204.605 103.076L205.775 100.45C206.521 101.039 207.431 101.525 208.505 101.906C209.597 102.27 210.689 102.452 211.781 102.452C213.133 102.452 214.139 102.235 214.797 101.802C215.473 101.369 215.811 100.797 215.811 100.086C215.811 99.566 215.621 99.1413 215.239 98.812C214.875 98.4653 214.407 98.1967 213.835 98.006C213.263 97.8153 212.483 97.5987 211.495 97.356C210.109 97.0267 208.982 96.6973 208.115 96.368C207.266 96.0387 206.529 95.5273 205.905 94.834C205.299 94.1233 204.995 93.17 204.995 91.974C204.995 90.9687 205.264 90.0587 205.801 89.244C206.356 88.412 207.179 87.7533 208.271 87.268C209.381 86.7827 210.733 86.54 212.327 86.54C213.437 86.54 214.529 86.6787 215.603 86.956C216.678 87.2333 217.605 87.632 218.385 88.152L217.319 90.778C216.522 90.31 215.69 89.9547 214.823 89.712C213.957 89.4693 213.116 89.348 212.301 89.348C210.967 89.348 209.97 89.5733 209.311 90.024C208.67 90.4747 208.349 91.0727 208.349 91.818C208.349 92.338 208.531 92.7627 208.895 93.092C209.277 93.4213 209.753 93.6813 210.325 93.872C210.897 94.0627 211.677 94.2793 212.665 94.522C214.017 94.834 215.127 95.1633 215.993 95.51C216.86 95.8393 217.597 96.3507 218.203 97.044C218.827 97.7373 219.139 98.6733 219.139 99.852C219.139 100.857 218.862 101.767 218.307 102.582C217.77 103.397 216.947 104.047 215.837 104.532C214.728 105.017 213.376 105.26 211.781 105.26ZM243.378 105.26C241.524 105.26 239.851 104.861 238.36 104.064C236.87 103.249 235.7 102.131 234.85 100.71C234.001 99.2713 233.576 97.668 233.576 95.9C233.576 94.132 234.001 92.5373 234.85 91.116C235.7 89.6773 236.87 88.5593 238.36 87.762C239.851 86.9473 241.524 86.54 243.378 86.54C245.233 86.54 246.906 86.9473 248.396 87.762C249.887 88.5593 251.057 89.6687 251.906 91.09C252.756 92.5113 253.18 94.1147 253.18 95.9C253.18 97.6853 252.756 99.2887 251.906 100.71C251.057 102.131 249.887 103.249 248.396 104.064C246.906 104.861 245.233 105.26 243.378 105.26ZM243.378 102.296C244.592 102.296 245.684 102.027 246.654 101.49C247.625 100.935 248.388 100.173 248.942 99.202C249.497 98.214 249.774 97.1133 249.774 95.9C249.774 94.6867 249.497 93.5947 248.942 92.624C248.388 91.636 247.625 90.8733 246.654 90.336C245.684 89.7813 244.592 89.504 243.378 89.504C242.165 89.504 241.073 89.7813 240.102 90.336C239.132 90.8733 238.369 91.636 237.814 92.624C237.26 93.5947 236.982 94.6867 236.982 95.9C236.982 97.1133 237.26 98.214 237.814 99.202C238.369 100.173 239.132 100.935 240.102 101.49C241.073 102.027 242.165 102.296 243.378 102.296ZM271.271 105L267.553 99.67C267.397 99.6873 267.163 99.696 266.851 99.696H262.743V105H259.363V86.8H266.851C268.428 86.8 269.798 87.06 270.959 87.58C272.138 88.1 273.039 88.8453 273.663 89.816C274.287 90.7867 274.599 91.9393 274.599 93.274C274.599 94.6433 274.261 95.822 273.585 96.81C272.926 97.798 271.973 98.5347 270.725 99.02L274.911 105H271.271ZM271.193 93.274C271.193 92.1127 270.812 91.22 270.049 90.596C269.286 89.972 268.168 89.66 266.695 89.66H262.743V96.914H266.695C268.168 96.914 269.286 96.602 270.049 95.978C270.812 95.3367 271.193 94.4353 271.193 93.274ZM280.981 86.8H284.361V105H280.981V86.8ZM305.533 102.166V105H291.883V86.8H305.169V89.634H295.263V94.366H304.051V97.148H295.263V102.166H305.533ZM328.073 86.8V105H325.291L315.255 92.676V105H311.901V86.8H314.683L324.719 99.124V86.8H328.073ZM339.242 89.66H333.21V86.8H348.654V89.66H342.622V105H339.242V89.66ZM367.441 102.166V105H353.791V86.8H367.077V89.634H357.171V94.366H365.959V97.148H357.171V102.166H367.441ZM373.809 86.8H381.765C383.706 86.8 385.431 87.1813 386.939 87.944C388.447 88.6893 389.617 89.7553 390.449 91.142C391.281 92.5113 391.697 94.0973 391.697 95.9C391.697 97.7027 391.281 99.2973 390.449 100.684C389.617 102.053 388.447 103.119 386.939 103.882C385.431 104.627 383.706 105 381.765 105H373.809V86.8ZM381.609 102.14C382.944 102.14 384.114 101.889 385.119 101.386C386.142 100.866 386.922 100.138 387.459 99.202C388.014 98.2487 388.291 97.148 388.291 95.9C388.291 94.652 388.014 93.56 387.459 92.624C386.922 91.6707 386.142 90.9427 385.119 90.44C384.114 89.92 382.944 89.66 381.609 89.66H377.189V102.14H381.609ZM420.571 95.536C421.576 95.8653 422.374 96.42 422.963 97.2C423.552 97.9627 423.847 98.916 423.847 100.06C423.847 101.637 423.24 102.859 422.027 103.726C420.814 104.575 419.046 105 416.723 105H407.675V86.8H416.203C418.352 86.8 420.008 87.2247 421.169 88.074C422.33 88.906 422.911 90.0587 422.911 91.532C422.911 92.4333 422.703 93.2307 422.287 93.924C421.871 94.6173 421.299 95.1547 420.571 95.536ZM411.055 89.452V94.47H415.839C417.018 94.47 417.919 94.262 418.543 93.846C419.184 93.4127 419.505 92.7887 419.505 91.974C419.505 91.142 419.184 90.518 418.543 90.102C417.919 89.6687 417.018 89.452 415.839 89.452H411.055ZM416.515 102.348C419.132 102.348 420.441 101.473 420.441 99.722C420.441 97.9713 419.132 97.096 416.515 97.096H411.055V102.348H416.515ZM437.88 105.26C435.367 105.26 433.408 104.558 432.004 103.154C430.6 101.733 429.898 99.7047 429.898 97.07V86.8H433.278V96.94C433.278 100.511 434.821 102.296 437.906 102.296C440.974 102.296 442.508 100.511 442.508 96.94V86.8H445.836V97.07C445.836 99.7047 445.134 101.733 443.73 103.154C442.344 104.558 440.394 105.26 437.88 105.26ZM458.812 105.26C457.408 105.26 456.047 105.061 454.73 104.662C453.43 104.263 452.398 103.735 451.636 103.076L452.806 100.45C453.551 101.039 454.461 101.525 455.536 101.906C456.628 102.27 457.72 102.452 458.812 102.452C460.164 102.452 461.169 102.235 461.828 101.802C462.504 101.369 462.842 100.797 462.842 100.086C462.842 99.566 462.651 99.1413 462.27 98.812C461.906 98.4653 461.438 98.1967 460.866 98.006C460.294 97.8153 459.514 97.5987 458.526 97.356C457.139 97.0267 456.012 96.6973 455.146 96.368C454.296 96.0387 453.56 95.5273 452.936 94.834C452.329 94.1233 452.026 93.17 452.026 91.974C452.026 90.9687 452.294 90.0587 452.832 89.244C453.386 88.412 454.21 87.7533 455.302 87.268C456.411 86.7827 457.763 86.54 459.358 86.54C460.467 86.54 461.559 86.6787 462.634 86.956C463.708 87.2333 464.636 87.632 465.416 88.152L464.35 90.778C463.552 90.31 462.72 89.9547 461.854 89.712C460.987 89.4693 460.146 89.348 459.332 89.348C457.997 89.348 457 89.5733 456.342 90.024C455.7 90.4747 455.38 91.0727 455.38 91.818C455.38 92.338 455.562 92.7627 455.926 93.092C456.307 93.4213 456.784 93.6813 457.356 93.872C457.928 94.0627 458.708 94.2793 459.696 94.522C461.048 94.834 462.157 95.1633 463.024 95.51C463.89 95.8393 464.627 96.3507 465.234 97.044C465.858 97.7373 466.17 98.6733 466.17 99.852C466.17 100.857 465.892 101.767 465.338 102.582C464.8 103.397 463.977 104.047 462.868 104.532C461.758 105.017 460.406 105.26 458.812 105.26ZM472.121 86.8H475.501V105H472.121V86.8ZM499.196 86.8V105H496.414L486.378 92.676V105H483.024V86.8H485.806L495.842 99.124V86.8H499.196ZM520.323 102.166V105H506.673V86.8H519.959V89.634H510.053V94.366H518.841V97.148H510.053V102.166H520.323ZM532.333 105.26C530.929 105.26 529.568 105.061 528.251 104.662C526.951 104.263 525.92 103.735 525.157 103.076L526.327 100.45C527.072 101.039 527.982 101.525 529.057 101.906C530.149 102.27 531.241 102.452 532.333 102.452C533.685 102.452 534.69 102.235 535.349 101.802C536.025 101.369 536.363 100.797 536.363 100.086C536.363 99.566 536.172 99.1413 535.791 98.812C535.427 98.4653 534.959 98.1967 534.387 98.006C533.815 97.8153 533.035 97.5987 532.047 97.356C530.66 97.0267 529.534 96.6973 528.667 96.368C527.818 96.0387 527.081 95.5273 526.457 94.834C525.85 94.1233 525.547 93.17 525.547 91.974C525.547 90.9687 525.816 90.0587 526.353 89.244C526.908 88.412 527.731 87.7533 528.823 87.268C529.932 86.7827 531.284 86.54 532.879 86.54C533.988 86.54 535.08 86.6787 536.155 86.956C537.23 87.2333 538.157 87.632 538.937 88.152L537.871 90.778C537.074 90.31 536.242 89.9547 535.375 89.712C534.508 89.4693 533.668 89.348 532.853 89.348C531.518 89.348 530.522 89.5733 529.863 90.024C529.222 90.4747 528.901 91.0727 528.901 91.818C528.901 92.338 529.083 92.7627 529.447 93.092C529.828 93.4213 530.305 93.6813 530.877 93.872C531.449 94.0627 532.229 94.2793 533.217 94.522C534.569 94.834 535.678 95.1633 536.545 95.51C537.412 95.8393 538.148 96.3507 538.755 97.044C539.379 97.7373 539.691 98.6733 539.691 99.852C539.691 100.857 539.414 101.767 538.859 102.582C538.322 103.397 537.498 104.047 536.389 104.532C535.28 105.017 533.928 105.26 532.333 105.26ZM551.284 105.26C549.88 105.26 548.52 105.061 547.202 104.662C545.902 104.263 544.871 103.735 544.108 103.076L545.278 100.45C546.024 101.039 546.934 101.525 548.008 101.906C549.1 102.27 550.192 102.452 551.284 102.452C552.636 102.452 553.642 102.235 554.3 101.802C554.976 101.369 555.314 100.797 555.314 100.086C555.314 99.566 555.124 99.1413 554.742 98.812C554.378 98.4653 553.91 98.1967 553.338 98.006C552.766 97.8153 551.986 97.5987 550.998 97.356C549.612 97.0267 548.485 96.6973 547.618 96.368C546.769 96.0387 546.032 95.5273 545.408 94.834C544.802 94.1233 544.498 93.17 544.498 91.974C544.498 90.9687 544.767 90.0587 545.304 89.244C545.859 88.412 546.682 87.7533 547.774 87.268C548.884 86.7827 550.236 86.54 551.83 86.54C552.94 86.54 554.032 86.6787 555.106 86.956C556.181 87.2333 557.108 87.632 557.888 88.152L556.822 90.778C556.025 90.31 555.193 89.9547 554.326 89.712C553.46 89.4693 552.619 89.348 551.804 89.348C550.47 89.348 549.473 89.5733 548.814 90.024C548.173 90.4747 547.852 91.0727 547.852 91.818C547.852 92.338 548.034 92.7627 548.398 93.092C548.78 93.4213 549.256 93.6813 549.828 93.872C550.4 94.0627 551.18 94.2793 552.168 94.522C553.52 94.834 554.63 95.1633 555.496 95.51C556.363 95.8393 557.1 96.3507 557.706 97.044C558.33 97.7373 558.642 98.6733 558.642 99.852C558.642 100.857 558.365 101.767 557.81 102.582C557.273 103.397 556.45 104.047 555.34 104.532C554.231 105.017 552.879 105.26 551.284 105.26Z" fill="#003B79"/>
<path fill-rule="evenodd" clip-rule="evenodd" d="M52.2637 110.263C49.6435 110.747 46.9424 111 44.1821 111C19.781 111 0 91.2397 0 66.8642C0 64.1932 0.237505 61.5777 0.69257 59.0375C0.988539 59.0223 1.39197 59.0161 1.69423 59.0668C3.02348 59.2901 4.56607 60.9794 4.56607 60.9794C4.56607 60.9794 6.96782 63.0273 8.68973 64.0689C9.73909 64.7037 10.5494 65.0565 11.4487 65.4481L11.4487 65.4481L11.4488 65.4481C11.9543 65.6682 12.4879 65.9006 13.1079 66.2021C13.6072 66.445 14.0116 66.7018 14.3943 66.9448C15.0929 67.3885 15.7188 67.786 16.7161 67.9676C17.7346 68.153 19.3671 67.9676 19.3671 67.9676H26.878C26.878 67.9676 29.7186 68.1855 31.5171 67.9676C33.9562 67.672 37.5553 66.2021 37.5553 66.2021C37.5553 66.2021 39.8403 65.5163 41.3108 65.0987C41.8303 64.9512 42.5181 64.9593 43.1667 64.9668C44.3446 64.9806 45.3927 64.9929 45.0663 64.0689C44.8984 63.5938 44.5707 63.3967 44.1958 63.1712C44.0258 63.069 43.8461 62.9609 43.6672 62.8184C42.6257 61.9887 42.0172 61.5095 40.7953 60.9794C39.2847 60.324 36.6717 60.0967 36.6717 60.0967L34.168 59.5818H31.5171H26.878L24.2271 59.0668L26.1416 57.0807L28.498 55.0211L30.8544 53.1085C30.8544 53.1085 32.7514 51.9842 34.168 51.4166C35.3958 50.9247 37.5553 50.4604 37.5553 50.4604H41.3108L46.539 52.0787C46.539 52.0787 48.8595 53.0881 50.4418 53.3292C50.666 53.3634 50.8782 53.399 51.0818 53.4332L51.082 53.4332C52.2463 53.6287 53.1271 53.7766 54.3445 53.3292C55.2056 53.0127 56.3327 52.0787 56.3327 52.0787C56.3327 52.0787 54.051 50.1423 52.5772 48.9156C51.1176 47.7007 48.8218 45.8261 48.8218 45.8261L45.0663 43.9136L41.3108 42.663L38.5126 41.7803L34.168 40.8976H29.8971C29.8971 40.8976 26.2739 41.0915 23.1962 42.001C21.7137 42.4391 19.4673 43.1647 18.1152 43.9136C17.6442 44.1744 17.332 44.5064 17.031 44.8265C16.644 45.238 16.2754 45.6299 15.6116 45.8261C14.674 46.1032 13.1079 45.8261 13.1079 45.8261C13.1079 45.8261 11.613 45.9877 10.6779 45.8261C9.05581 45.5458 6.92244 43.9136 6.92244 43.9136L5.80159 44.9859C13.4135 31.6892 27.7502 22.7284 44.1821 22.7284C68.5831 22.7284 88.3641 42.4887 88.3641 66.8642C88.3641 82.8043 79.905 96.7708 67.2266 104.528C66.6897 103.726 65.9028 102.411 65.6805 101.3C65.4804 100.3 65.5814 98.6859 65.5814 98.6859C65.5814 98.6859 65.2398 97.0119 65.4793 95.9929C65.6488 95.2714 66.0266 94.8601 66.4232 94.4283C66.7317 94.0923 67.0517 93.7439 67.2939 93.2274C67.9892 91.7447 68.6248 89.3008 69.0034 87.6897C69.7894 84.3447 69.8359 80.4401 69.8359 80.4401L69.6617 75.8461L68.5999 71.2065L67.6011 68.2301L66.1947 64.238L64.1248 60.271C64.1248 60.271 62.1526 57.8726 60.8754 56.3487C59.5859 54.81 57.5523 52.4291 57.5523 52.4291C57.5523 52.4291 56.6622 53.6769 56.3801 54.6151C55.9814 55.9416 56.1655 56.8834 56.4089 58.1283C56.4515 58.3461 56.4959 58.5731 56.5393 58.813C56.8455 60.5059 57.9517 62.9635 57.9517 62.9635L59.7868 68.5258L59.94 72.5653C59.94 72.5653 59.5626 74.9058 59.1197 76.245C58.6087 77.7903 57.5593 79.8734 57.5593 79.8734L55.7387 82.4806L53.7706 85.0932L51.8583 87.2279L51.2341 84.396L51.0449 79.4061L50.9368 76.5546L50.3187 73.8812C50.3187 73.8812 49.9843 71.0791 49.2658 69.4791C48.6847 68.1849 48.1797 67.5486 47.3057 66.4598C47.1556 66.2728 47.04 66.0836 46.9305 65.9046C46.6893 65.5099 46.4784 65.1648 45.9954 65.0023C45.0561 64.6862 45.1111 65.8132 45.173 67.0796C45.207 67.7769 45.2431 68.5165 45.1165 69.0809C44.758 70.6784 44.1638 73.1622 44.1638 73.1622C44.1638 73.1622 42.8375 77.0892 42.6408 79.724C42.4958 81.6668 42.83 84.714 42.83 84.714L43.1363 92.793C43.1363 92.793 43.0171 94.556 43.2445 95.6444C43.4671 96.7103 43.891 97.3685 44.3641 98.1031C44.6233 98.5055 44.8972 98.9308 45.1609 99.4586C45.4884 100.114 45.743 100.679 45.9843 101.215C46.4134 102.167 46.8 103.025 47.479 104.13C48.5931 105.943 50.7434 108.448 50.7434 108.448C50.7434 108.448 51.6502 109.272 52.2637 110.263Z" fill="#003B79"/>
</svg>
